<?xml version="1.0" encoding="UTF-8" standalone="no"?>
<svg width="41px" height="41px" viewBox="0 0 41 41" version="1.1" xmlns="http://www.w3.org/2000/svg" xmlns:xlink="http://www.w3.org/1999/xlink">
    <!-- Generator: sketchtool 41.2 (35397) - http://www.bohemiancoding.com/sketch -->
    <title>B4268596-9B8F-4022-9554-DF373B576A4B</title>
    <desc>Created with sketchtool.</desc>
    <defs></defs>
    <g id="Page-1" stroke="none" stroke-width="1" fill="none" fill-rule="evenodd" opacity="0.508570429">
        <g id="ejercicio-1" transform="translate(-78.000000, -780.000000)" fill="#8C96AB">
            <g id="Group" transform="translate(48.000000, 49.000000)">
                <g id="Error-+-Success-Messages" transform="translate(0.000000, 714.000000)">
                    <g id="ic_error_outline_black_24px-(2)" transform="translate(30.124677, 17.879316)">
                        <path d="M18,26 L22,26 L22,30 L18,30 L18,26 Z M18,10 L22,10 L22,22 L18,22 L18,10 Z M19.98,0 C8.94,0 0,8.96 0,20 C0,31.04 8.94,40 19.98,40 C31.04,40 40,31.04 40,20 C40,8.96 31.04,0 19.98,0 Z M20,36 C11.16,36 4,28.84 4,20 C4,11.16 11.16,4 20,4 C28.84,4 36,11.16 36,20 C36,28.84 28.84,36 20,36 Z" id="Shape"></path>
                    </g>
                </g>
            </g>
        </g>
    </g>
</svg>